# xmcd
#
# Track frame offsets:
#	150
#	18383
#	30343
#	49396
#	65338
#	86905
#	99249
#	110428
#	122410
#	140097
#	156106
#	175884
#	202798
#	214439
#	227287
#	245722
#	265693
#
# Disc length: 3786
#
# Revision: 2
# Processed by: cddbd v1.5.1PL0 Copyright (c) Steve Scherf et al.
# Submitted via: audiograbber 1.80
# Normalized: r1:DSETVAR2,TDELIM( - )
#
DISCID=e30ec811
DTITLE=Various Artist - Best Soul Album in the World Ever
DYEAR=1900
DGENRE=
TTITLE0=Marvin Gaye - Let's Get it On
TTITLE1=The Impressions - People Get Ready
TTITLE2=Randy Crawford - Rainy Night in Georgia
TTITLE3=The Staple Singers - Respect Yourself
TTITLE4=Billy Paul - Me and Mrs. Jones
TTITLE5=The Temptations - My Girl
TTITLE6=Ann Peebles - I Can't Stand the Rain
TTITLE7=Sam and Dave - Soul Man
TTITLE8=Shirley Brown - Woman to Woman
TTITLE9=Bobby Womack - Woman's Gotta Have It
TTITLE10=The Commodores - Nightshift
TTITLE11=Loose Ends - Hangin' On a String
TTITLE12=Erma Franklin - Piece of My Heart
TTITLE13=Al Green - Tired of Being Alone
TTITLE14=Freddie Jackson - Rock Me Tonight
TTITLE15=Tina Turner - Something Beautiful Remains
TTITLE16=Isaac Hayes - Hyperbolicsyllabicsesquedalymistic
EXTD=
EXTT0=
EXTT1=
EXTT2=
EXTT3=
EXTT4=
EXTT5=
EXTT6=
EXTT7=
EXTT8=
EXTT9=
EXTT10=
EXTT11=
EXTT12=
EXTT13=
EXTT14=
EXTT15=
EXTT16=
PLAYORDER=
